<svg xmlns="http://www.w3.org/2000/svg" width="64" height="64" viewBox="0 0 64 64" fill="none">
  <rect width="64" height="64" rx="18" fill="#FFF7ED"/>
  <rect x="6" y="6" width="52" height="52" rx="16" fill="#111827"/>
  <path d="M21 17H34.5C41.4 17 45.5 20.7 45.5 26.1C45.5 29.7 43.6 32.2 40.3 33.3C44.4 34.3 46.9 37.2 46.9 41.4C46.9 47.8 42.2 52 34.4 52H21V17ZM28 23V30.8H33.9C36.8 30.8 38.5 29.4 38.5 27C38.5 24.5 36.8 23 33.8 23H28ZM28 36.2V45.8H34.2C37.7 45.8 39.8 44.1 39.8 41.1C39.8 38 37.6 36.2 33.9 36.2H28Z" fill="#F97316"/>
</svg>
